<?xml version="1.0" encoding="utf-8"?>
<!-- Generator: Adobe Illustrator 16.0.0, SVG Export Plug-In . SVG Version: 6.00 Build 0)  -->
<!DOCTYPE svg PUBLIC "-//W3C//DTD SVG 1.1//EN" "http://www.w3.org/Graphics/SVG/1.1/DTD/svg11.dtd">
<svg version="1.1" id="Capa_1" xmlns="http://www.w3.org/2000/svg" xmlns:xlink="http://www.w3.org/1999/xlink" x="0px" y="0px"
	 width="130px" height="34px" viewBox="0 0 130 34" enable-background="new 0 0 130 34" xml:space="preserve">
<g>
	<g>
		<g>
			<path fill="#FFFFFF" d="M99.589,32.361v-4.789c0-0.469,0-1.264-0.083-1.906c0.357-0.039,1.488-0.08,2.068-0.08
				c1.335,0,2.171,0.488,2.171,1.518c0,1.08-0.754,1.559-1.101,1.662c0.938,0.191,1.499,0.783,1.499,1.629
				c0,1.406-1.183,2.088-2.63,2.088C100.984,32.482,99.884,32.402,99.589,32.361z M100.729,26.391v2.15
				c0.214,0.029,0.458,0.039,0.652,0.039c0.651,0,1.222-0.447,1.222-1.213c0-0.701-0.377-1.037-1.202-1.037
				C101.188,26.33,100.933,26.35,100.729,26.391z M100.729,29.283v2.365c0.234,0.051,0.529,0.07,0.845,0.07
				c0.745,0,1.387-0.336,1.387-1.283c0-0.723-0.55-1.182-1.436-1.182C101.32,29.254,101.014,29.254,100.729,29.283z"/>
		</g>
		<g>
			<path fill="#FFFFFF" d="M107.78,32.361l-0.071-0.408c-0.214,0.234-0.621,0.529-1.243,0.529c-0.866,0-1.486-0.355-1.486-1.242
				c0-0.846,0.825-1.273,1.772-1.387l0.906-0.102v-0.316c0-0.732-0.275-1.008-0.846-1.008c-0.601,0-0.969,0.348-1.191,0.713
				c-0.214-0.029-0.407-0.172-0.407-0.498c0-0.551,0.865-0.908,1.721-0.908c1.122,0,1.763,0.43,1.763,1.416
				c0,0.734-0.041,1.438-0.041,2.08c0,0.264,0.041,0.693,0.173,1.131H107.78z M107.658,31.506v-1.203l-0.458,0.051
				c-0.429,0.051-0.836,0.133-1.051,0.254c-0.091,0.104-0.172,0.287-0.172,0.48c0,0.469,0.306,0.713,0.783,0.713
				C107.098,31.801,107.403,31.678,107.658,31.506z"/>
		</g>
		<g>
			<path fill="#FFFFFF" d="M110.206,32.361c0.07-0.592,0.07-1.273,0.07-1.59v-1.273c0-0.316,0-1.039-0.11-1.682h1.14v0.551
				c0.275-0.297,0.765-0.633,1.407-0.633c0.988,0,1.559,0.5,1.559,1.611v1.426c0,0.316,0,0.998,0.062,1.59h-1.183
				c0.072-0.592,0.072-1.273,0.072-1.59v-1.029c0-0.875-0.235-1.191-0.929-1.191c-0.397,0-0.733,0.172-0.967,0.355v1.865
				c0,0.316,0,1.02,0.061,1.59H110.206z"/>
		</g>
		<g>
			<path fill="#FFFFFF" d="M115.383,30.16c0-1.467,1.161-2.426,2.588-2.426c0.499,0,1.019,0.154,1.232,0.266
				c0,0.357-0.152,0.662-0.377,0.785c-0.388,0-0.459-0.348-1.08-0.348c-0.672,0-1.242,0.561-1.242,1.57
				c0,1.191,0.56,1.701,1.335,1.701c0.591,0,0.987-0.225,1.222-0.418c0.061,0,0.102,0.082,0.102,0.225s-0.03,0.316-0.102,0.479
				c-0.143,0.143-0.601,0.488-1.426,0.488C116.31,32.482,115.383,31.678,115.383,30.16z"/>
		</g>
		<g>
			<path fill="#FFFFFF" d="M119.877,30.191c0-1.559,1.09-2.467,2.455-2.467c1.386,0,2.272,0.836,2.272,2.283
				c0,1.578-1.081,2.496-2.477,2.496C120.763,32.504,119.877,31.617,119.877,30.191z M123.474,30.109
				c0-1.141-0.521-1.713-1.224-1.713c-0.795,0-1.242,0.684-1.242,1.672c0,1.15,0.509,1.752,1.242,1.752
				C123.034,31.82,123.474,31.117,123.474,30.109z"/>
		</g>
	</g>
	<g>
		<g>
			<path fill="#FFFFFF" d="M62.665,0.636l-0.127-0.071l-0.127,0.071L49.404,8.16l0,0v11.261c-0.021,1.167,0.262,2.31,0.867,3.397
				c0.626,1.086,1.489,1.926,2.511,2.451l9.758,5.662l0,0l9.754-5.66c1.024-0.525,1.907-1.365,2.535-2.449
				c0.583-1.088,0.87-2.232,0.847-3.398V8.16l0,0L62.665,0.636z"/>
		</g>
		<g>
			<g>
				<g>
					<g>
						<path fill="#FFFFFF" d="M81.458,23.352h-0.067v-7.736c0-0.775,0-2.062-0.134-3.085h0.134c0.317-0.031,2.162-0.132,3.738-0.132
							c3.723,0,6.22,1.733,6.22,5.279c0,3.678-2.361,5.871-6.354,5.871C83.637,23.549,82.194,23.467,81.458,23.352z M83.755,14.033
							v7.816c0.386,0.084,0.887,0.148,1.308,0.148c2.482,0,3.807-1.615,3.807-4.123c0-2.77-1.376-3.925-3.874-3.925
							C84.675,13.95,84.191,13.982,83.755,14.033z"/>
					</g>
					<g>
						<path fill="#FFFFFF" d="M91.938,19.742c0-2.597,1.894-3.99,4.19-3.99c2.431,0,3.941,1.291,3.941,3.74
							c0,2.699-1.844,4.057-4.261,4.057C93.496,23.549,91.938,22.191,91.938,19.742z M97.771,19.676c0-1.711-0.703-2.615-1.76-2.615
							c-1.274,0-1.778,0.988-1.778,2.482c0,1.727,0.672,2.699,1.778,2.699C97.271,22.242,97.771,21.186,97.771,19.676z"/>
					</g>
					<g>
						<path fill="#FFFFFF" d="M101.033,23.33c0.118-0.922,0.118-2.096,0.118-2.615v-2.096c0-0.536,0-1.71-0.186-2.75
							c0,0,0.346-0.002,0.687-0.002c1.579,0,1.594,0.975,1.594,0.975c0.537-0.655,1.324-1.107,2.297-1.107
							c1.644,0,2.616,0.789,2.616,2.681v2.299c0,0.52,0,1.693,0.134,2.615h-2.415c0.117-0.922,0.117-2.096,0.117-2.615v-1.844
							c0-1.106-0.318-1.561-1.306-1.561c-0.522,0-0.974,0.185-1.376,0.52v2.885c0,0.52,0,1.762,0.135,2.615H101.033z"/>
					</g>
					<g>
						<path fill="#FFFFFF" d="M109.22,19.742c0-2.548,1.845-3.99,4.326-3.99c0.32,0,0.721,0.067,1.057,0.169v-0.738
							c0-0.536,0-1.777-0.202-2.749h2.364v8.298c0,0.855,0,1.693,0.117,2.615c0,0,0.087,0-0.687,0c-1.369,0-1.493-0.736-1.49-0.736
							c-0.438,0.52-1.076,0.938-2.081,0.938C110.947,23.549,109.22,22.627,109.22,19.742z M114.603,21.738v-4.51
							c-0.268-0.102-0.604-0.168-0.988-0.168c-1.174,0-2.163,0.855-2.163,2.549c0,1.844,0.854,2.43,1.775,2.43
							C113.697,22.039,114.219,21.988,114.603,21.738z"/>
					</g>
					<g>
						<path fill="#FFFFFF" d="M117.906,19.742c0-2.531,1.575-3.99,3.94-3.99c1.692,0,3,0.922,3,3.02c0,0.251-0.052,0.52-0.115,0.721
							c-0.27,0.117-0.789,0.184-1.377,0.184h-3.22v0.133c0,1.596,0.924,2.23,2.031,2.23c1.123,0,1.708-0.334,2.16-0.652
							c0.136,0,0.202,0.15,0.202,0.453c0,0.334-0.066,0.721-0.134,0.854c-0.268,0.27-1.105,0.855-2.615,0.855
							C119.481,23.549,117.906,22.359,117.906,19.742z M120.233,18.57h2.652v-0.135c0-0.855-0.253-1.442-1.175-1.442
							C120.94,16.993,120.388,17.53,120.233,18.57z M120.454,14.831v-0.202c0-0.402,0.101-0.738,0.402-0.973l2.934-2.229h0.067
							c0,0.855-0.067,1.308-0.318,1.827l-2.951,1.578H120.454z"/>
					</g>
				</g>
				<g>
					<g>
						<path fill="#FFFFFF" d="M4.454,16.229c-0.232-0.096-1.773-0.145-2.479-0.145H1.095v2.83h3.127l0.049,0.048
							c0,0.232-0.098,0.475-0.244,0.608H1.095v1.485c0,0.609,0,1.521,0.098,2.275h-0.95v-5.629c0-0.571,0-1.521-0.097-2.275h4.355
							L4.454,16.229z"/>
					</g>
					<g>
						<path fill="#FFFFFF" d="M9.346,23.33c-0.605,0-0.655-0.57-0.655-0.57c-0.279,0.191-0.851,0.717-1.752,0.717
							c-1.145,0-1.766-0.707-1.766-1.947v-1.717c0-0.377,0-1.145-0.049-1.896H5.99c-0.049,0.752-0.049,1.52-0.049,1.896v1.047
							c0,1.424,0.28,1.9,1.327,1.9c0.622,0,1.145-0.33,1.424-0.525v-2.422c0-0.377,0-1.145-0.049-1.896h0.865
							c-0.048,0.752-0.048,1.52-0.048,1.896v1.521c0,0.377,0,1.242,0.083,1.996C9.542,23.33,9.395,23.33,9.346,23.33z"/>
					</g>
					<g>
						<path fill="#FFFFFF" d="M10.98,17.916c0.604,0,0.655,0.57,0.655,0.57c0.278-0.194,0.851-0.716,1.752-0.716
							c1.141,0,1.762,0.706,1.762,1.946v1.715c0,0.377,0,1.145,0.051,1.898h-0.866c0.05-0.754,0.05-1.521,0.05-1.898v-1.047
							c0-1.424-0.28-1.898-1.328-1.898c-0.62,0-1.144,0.328-1.422,0.523v2.422c0,0.377,0,1.145,0.047,1.898h-0.865
							c0.051-0.754,0.051-1.521,0.051-1.898v-1.52c0-0.379,0-1.244-0.085-1.996C10.783,17.916,10.931,17.916,10.98,17.916z"/>
					</g>
					<g>
						<path fill="#FFFFFF" d="M39.421,17.916c0.606,0,0.655,0.57,0.655,0.57c0.279-0.194,0.852-0.716,1.75-0.716
							c1.146,0,1.863,0.706,1.863,1.946v1.715c0,0.377,0,1.145,0.049,1.898h-0.961c0.048-0.754,0.048-1.521,0.048-1.898v-1.047
							c0-1.424-0.279-1.898-1.325-1.898c-0.623,0-1.145,0.328-1.423,0.523v2.422c0,0.377,0,1.145,0.048,1.898h-0.865
							c0.05-0.754,0.05-1.521,0.05-1.898v-1.52c0-0.379,0-1.244-0.086-1.996C39.223,17.916,39.371,17.916,39.421,17.916z"/>
					</g>
					<g>
						<path fill="#FFFFFF" d="M16.12,20.762c0-1.752,1.241-2.943,2.81-2.943c0.477,0,0.901,0.146,1.084,0.279v-0.672
							c0-0.377,0-1.241-0.087-1.996h0.853v6.002c0,0.377,0,1.145,0.097,1.898c0,0-0.105,0-0.189,0c-0.581,0-0.613-0.475-0.613-0.475
							h-0.013c-0.183,0.195-0.705,0.621-1.618,0.621C17.118,23.477,16.12,22.477,16.12,20.762z M20.014,22.332v-3.564
							c-0.207-0.146-0.574-0.33-1.133-0.33c-1.144,0-1.958,0.853-1.958,2.227c0,1.389,0.669,2.143,1.714,2.143
							C19.259,22.807,19.733,22.576,20.014,22.332z"/>
					</g>
					<g>
						<path fill="#FFFFFF" d="M25.614,23.33c-0.581,0-0.65-0.535-0.65-0.535c-0.207,0.207-0.719,0.682-1.583,0.682
							c-0.864,0-1.618-0.426-1.618-1.424c0-0.963,0.802-1.484,2.142-1.619l1.047-0.109v-0.377c0-1.034-0.292-1.51-1.242-1.51
							c-0.718,0-1.242,0.476-1.423,0.756c-0.194-0.098-0.292-0.232-0.292-0.475c0-0.572,1.045-0.9,1.91-0.9
							c1.181,0,1.8,0.522,1.8,1.703c0,0.877-0.048,1.729-0.048,2.482c0,0.377,0,0.803,0.144,1.326
							C25.801,23.33,25.647,23.33,25.614,23.33z M24.951,22.283v-1.447l-0.719,0.072c-0.621,0.062-1.144,0.182-1.423,0.33
							c-0.147,0.145-0.293,0.375-0.293,0.717c0,0.609,0.388,0.947,1.046,0.947C24.136,22.902,24.561,22.611,24.951,22.283z"/>
					</g>
					<g>
						<path fill="#FFFFFF" d="M26.615,20.762c0-1.63,1.094-2.943,2.75-2.943c0.571,0,1.094,0.195,1.337,0.328
							c0,0.291-0.195,0.572-0.376,0.668c-0.488,0-0.523-0.328-1.291-0.328c-0.85,0-1.617,0.707-1.617,2.082
							c0,1.521,0.668,2.238,1.766,2.238c0.619,0,1.142-0.23,1.423-0.475c0.046,0,0.095,0.049,0.095,0.195
							c0,0.049,0,0.182-0.095,0.328c-0.148,0.195-0.719,0.621-1.572,0.621C27.465,23.477,26.615,22.381,26.615,20.762z"/>
					</g>
					<g>
						<path fill="#FFFFFF" d="M31.459,15.774c0-0.341,0.244-0.62,0.522-0.62c0.292,0,0.522,0.279,0.522,0.62
							s-0.18,0.619-0.522,0.619C31.703,16.394,31.459,16.115,31.459,15.774z M31.507,23.33c0.049-0.754,0.049-1.521,0.049-1.898
							v-1.52c0-0.379,0-1.244-0.097-1.996h0.865v3.516c0,0.377,0,1.145,0.037,1.898H31.507z"/>
					</g>
					<g>
						<path fill="#FFFFFF" d="M33.294,20.762c0-1.801,1.096-2.991,2.615-2.991c1.523,0,2.42,1.093,2.42,2.712
							c0,1.801-1.141,3.043-2.661,3.043C34.146,23.525,33.294,22.381,33.294,20.762z M37.468,20.615
							c0-1.568-0.682-2.274-1.654-2.274c-0.999,0-1.667,0.949-1.667,2.274c0,1.57,0.717,2.336,1.667,2.336
							C36.811,22.951,37.468,21.955,37.468,20.615z M35.096,17.1v-0.047c0-0.184,0.073-0.305,0.28-0.475l1.957-1.57h0.051
							c0,0.388-0.097,0.668-0.243,0.96L35.192,17.1H35.096z"/>
					</g>
				</g>
				<g>
					<g>
						<g>
							<g>
								<path fill="#369443" d="M62.54,15.735L49.404,8.16v11.261c-0.021,1.167,0.262,2.31,0.867,3.397
									c0.626,1.086,1.489,1.926,2.511,2.451l9.758,5.662V15.735z"/>
							</g>
							<g>
								<path fill="#94BB1E" d="M62.54,15.735v15.197l9.754-5.66c1.024-0.525,1.907-1.365,2.535-2.449
									c0.583-1.088,0.87-2.232,0.847-3.398V8.16L62.54,15.735z"/>
							</g>
							<g>
								<path fill="#E4A612" d="M64.333,10.486l3.628-4.429c0.333-0.461,0.431-0.397,0.179,0.142l-2.331,4.997
									c-0.253,0.541-0.019,0.758,0.524,0.528l9.155-3.674L62.665,0.636l0.918,9.608C63.617,10.837,63.954,10.947,64.333,10.486z"
									/>
							</g>
							<g>
								<path fill="#F5CD21" d="M59.271,11.196l-2.354-4.996c-0.229-0.54-0.128-0.604,0.227-0.142l3.625,4.427
									c0.375,0.461,0.715,0.352,0.752-0.241l0.889-9.608L49.593,8.051l9.154,3.674C59.29,11.955,59.524,11.737,59.271,11.196z"/>
							</g>
						</g>
					</g>
				</g>
			</g>
			<g>
				<g>
					<path fill="#FFFFFF" d="M127.389,22.381l-0.073,0.949h-0.234l0.089-1.09v-0.057c0-0.049-0.005-0.104-0.014-0.158h0.313
						l0.424,1.012l0.451-1.012h0.293l0.088,1.305h-0.258l-0.06-0.949l-0.435,0.949h-0.186L127.389,22.381z"/>
				</g>
				<g>
					<path fill="#FFFFFF" d="M129.541,22.834c-0.032,0.006-0.062,0.006-0.093,0.006c-0.037,0-0.098-0.006-0.147-0.01v0.5h-0.26
						v-0.848c0-0.088,0-0.281-0.023-0.457h0.011c0.106-0.006,0.315-0.02,0.464-0.02c0.326,0,0.533,0.141,0.533,0.385
						c0,0.176-0.111,0.303-0.26,0.375l0.331,0.463c0.027,0.043,0.05,0.08,0.05,0.102h-0.269L129.541,22.834z M129.301,22.191v0.471
						c0.047,0.012,0.098,0.014,0.147,0.014c0.19,0,0.323-0.084,0.323-0.264c0-0.16-0.103-0.232-0.307-0.232
						C129.419,22.18,129.351,22.184,129.301,22.191z"/>
				</g>
			</g>
		</g>
	</g>
</g>
</svg>
